<svg width="60" height="60" viewBox="0 0 60 60" fill="none" xmlns="http://www.w3.org/2000/svg">
<path d="M5.81953 5.34766L12.668 17.3793H38.1562V9.17031L5.81953 5.34766ZM9.08906 19.4887V21.7855H39.2109C44.8359 21.7855 48.8437 25.2191 51.3047 29.3207C53.5312 33.0121 54.6094 37.2543 54.8086 40.5238H57.1641C56.918 36.6801 55.3828 31.5941 52.8047 27.4223C49.9805 22.8637 46.0312 19.4887 41.3203 19.4887H9.08906ZM10.6465 23.8949C10.2773 24.4457 9.5918 25.6645 8.90391 27.2465C8.04375 29.227 7.07578 31.7934 6.17344 34.6176C4.36992 40.2777 2.83594 46.9809 2.83594 51.9496C2.83594 52.6527 3.21914 53.4848 3.83672 54.1176C4.4543 54.7387 5.26641 55.1254 5.94492 55.1254H43.4297C44.0859 55.1254 44.9062 54.7387 45.5273 54.1176C46.1484 53.4848 46.5352 52.6527 46.5352 51.9496C46.5352 46.9809 45 40.2777 43.1836 34.6176C42.2812 31.7934 41.3086 29.227 40.4414 27.2465C39.75 25.6645 39.0586 24.4457 38.6836 23.8949H10.6465ZM7.61836 39.5043H41.6719C42.5508 42.9145 43.1719 46.5004 43.1719 49.3832C43.1719 51.0004 41.4609 52.6996 39.75 52.6996H9.49687C7.82227 52.6996 6.13008 51.0004 6.13008 49.3832C6.13008 46.5004 6.74414 42.9145 7.61836 39.5043Z" fill="#DDDAD5"/>
</svg>
