<svg width="60" height="60" viewBox="0 0 60 60" fill="none" xmlns="http://www.w3.org/2000/svg">
<path d="M23.793 3.12333C22.7509 3.13059 21.7221 3.27872 20.7235 3.57719C19.7328 3.87368 18.8202 4.3034 17.9919 4.85067C18.8968 7.15012 21.2069 10.069 23.8829 12.5608C26.6769 15.1626 29.8805 17.3731 31.9495 18.37L31.9737 18.3817L31.9975 18.3938C33.8988 19.3706 35.2448 20.9078 36.0218 22.6036C36.5221 23.6956 36.8136 24.8393 36.9835 26.0021C38.5069 24.8138 40.1129 23.8622 41.7455 23.1716C41.6213 21.0259 41.1493 18.7759 40.2896 16.523C38.4866 11.798 35.3373 7.99411 31.7707 5.67426C29.2072 4.00692 26.4563 3.10481 23.793 3.12333ZM14.8389 8.08094C14.2398 9.01071 13.7484 10.0473 13.375 11.1732C12.1282 14.9318 12.2293 19.6468 14.0325 24.372C15.1237 27.2317 16.7087 29.7532 18.5805 31.8134C20.4246 32.3651 22.2485 33.2175 23.9618 34.3742C25.2855 35.268 26.4651 36.291 27.4873 37.4037C27.821 37.4848 28.1547 37.5539 28.4881 37.6083C29.1233 35.9515 29.9477 34.3032 30.9636 32.704C31.5783 31.7357 32.2518 30.8059 32.9804 29.92C32.9888 29.3116 32.9839 28.722 32.955 28.1591C32.8764 26.6369 32.6327 25.3349 32.1862 24.3606C31.74 23.3863 31.1585 22.7057 30.0698 22.1465L30.1178 22.1702C27.4368 20.8782 24.0889 18.5172 21.0077 15.6481C18.5585 13.3676 16.2864 10.8133 14.8389 8.08094ZM47.6224 23.9862C46.0395 23.9991 44.365 24.3667 42.671 25.07C39.0569 26.5702 35.4281 29.611 32.744 33.8352C31.3709 35.9964 30.3842 38.2497 29.7707 40.459C32.1789 44.4994 32.7704 49.1405 31.0355 53.0382C31.316 53.4388 31.629 53.8156 31.9714 54.1647C34.5078 51.9763 37.4309 50.1636 39.5084 48.302C40.644 47.2848 41.5038 46.2776 41.9816 45.3184C42.4593 44.359 42.6237 43.4789 42.3753 42.2806L42.3608 42.2109L42.3512 42.1405C41.4075 35.3092 43.0631 31.2946 45.4759 28.8386C47.416 26.864 49.3473 25.8239 50.6796 24.4509C49.717 24.1309 48.6907 23.9774 47.6224 23.9862ZM54.2723 26.7932C52.3235 29.2155 49.9208 30.3343 48.4852 31.7955C46.8357 33.4745 45.697 35.4957 46.5264 41.5342C46.9258 43.5873 46.5748 45.5591 45.7579 47.1993C44.9262 48.8689 43.6825 50.2265 42.3237 51.4441C40.2597 53.2935 37.8788 54.8772 35.8871 56.4222C38.1459 57.0089 40.7176 56.725 43.3361 55.6379C46.9502 54.1379 50.5793 51.0968 53.2631 46.8726C55.9473 42.6482 57.1584 38.071 56.9812 34.1621C56.8457 31.1726 55.9224 28.6111 54.2724 26.7933L54.2723 26.7932ZM46.5264 41.5342C46.5194 41.4973 46.5138 41.4606 46.5061 41.4237L46.5304 41.5635C46.5293 41.5537 46.528 41.544 46.5266 41.5342H46.5264ZM13.6878 33.1642C11.5336 33.1448 9.50422 33.6171 7.79621 34.5479C7.80793 34.5482 7.81812 34.549 7.82984 34.5494C8.84117 34.5851 10.1108 34.4658 11.5726 34.6654C13.0343 34.8651 14.7466 35.5288 16.0437 36.9966C17.341 38.4643 18.2305 40.545 18.85 43.5333L18.8647 43.6029L18.8743 43.6735C19.1618 45.7585 20.4898 46.9647 22.7923 48.094C24.7569 49.0577 27.2791 49.7458 29.6732 50.4463C30.7455 45.6416 28.2014 39.7816 22.7814 36.1225C19.859 34.1495 16.6556 33.1911 13.688 33.1642H13.6878ZM4.18648 38.0213C1.22515 43.1225 3.60007 50.6078 10.0583 54.968C16.4128 59.2582 24.0957 58.7504 27.7934 54.3C25.633 53.6843 23.1837 52.9852 20.9344 51.882C18.0341 50.4593 15.2696 48.0687 14.7118 44.356C14.1806 41.813 13.4708 40.456 12.8825 39.7904C12.2919 39.1216 11.8313 38.9589 11.0016 38.8458C10.1719 38.7324 9.03171 38.8134 7.68136 38.7658C6.62902 38.7288 5.39433 38.5777 4.18648 38.0214V38.0213ZM14.7119 44.3559C14.7145 44.3676 14.7171 44.3784 14.7195 44.3902L14.6953 44.25C14.7002 44.2857 14.7066 44.3204 14.712 44.356L14.7119 44.3559Z" fill="#DDDAD5"/>
</svg>
