<svg width="60" height="60" viewBox="0 0 60 60" fill="none" xmlns="http://www.w3.org/2000/svg">
<path d="M16.8755 3.75C16.8755 3.75 11.0291 8.13281 11.2505 11.25C11.4385 13.8949 16.4507 14.2576 16.8755 16.875C17.0994 18.2545 15.0005 20.625 15.0005 20.625C15.0005 20.625 20.6255 17.6516 20.6255 15C20.6255 12.3484 15.6099 11.9557 15.0005 9.375C14.5464 7.45148 16.8755 3.75 16.8755 3.75ZM26.2505 3.75C26.2505 3.75 20.4041 8.13281 20.6255 11.25C20.8135 13.8949 25.8257 14.2576 26.2505 16.875C26.4744 18.2545 24.3755 20.625 24.3755 20.625C24.3755 20.625 30.0005 17.6516 30.0005 15C30.0005 12.3484 24.9849 11.9557 24.3755 9.375C23.9214 7.45148 26.2505 3.75 26.2505 3.75ZM35.6255 3.75C35.6255 3.75 29.7791 8.13281 30.0005 11.25C30.1885 13.8949 35.2007 14.2576 35.6255 16.875C35.8494 18.2545 33.7505 20.625 33.7505 20.625C33.7505 20.625 39.3755 17.6516 39.3755 15C39.3755 12.3484 34.3599 11.9557 33.7505 9.375C33.2964 7.45148 35.6255 3.75 35.6255 3.75ZM8.58957 23.5547C8.75715 31.0486 10.8095 44.5819 17.3443 51.4453H35.1568C41.6916 44.5819 43.7441 31.0486 43.9115 23.5547H8.58957ZM46.0425 23.6068C46.0207 24.6793 45.966 25.8629 45.87 27.1291C49.1387 27.558 51.6802 30.3682 51.6802 33.75C51.6802 37.4266 48.6772 40.4297 45.0005 40.4297C44.4971 40.4293 43.9952 40.3717 43.5048 40.258C43.1635 41.3854 42.781 42.5039 42.3516 43.599C43.2157 43.8295 44.1062 43.9459 45.0005 43.9453C50.6437 43.9453 55.1959 39.3932 55.1959 33.75C55.1959 28.4586 51.1937 24.1266 46.0425 23.6068ZM5.01184 53.5547C5.18844 54.1632 5.46348 54.8672 5.82687 55.473C6.1359 55.988 6.49367 56.4348 6.81453 56.7129C7.13516 56.9906 7.38336 57.0703 7.50055 57.0703H45.0005C45.1177 57.0703 45.3659 56.9909 45.6867 56.7129C46.0075 56.4348 46.3652 55.988 46.6743 55.473C47.0376 54.8672 47.3128 54.1632 47.4894 53.5547H5.01184Z" fill="#DDDAD5"/>
</svg>
