<svg width="101" height="47" viewBox="0 0 101 47" fill="none" xmlns="http://www.w3.org/2000/svg">
<path d="M1.886 6.8H6.946V20.37L13.386 6.8H18.446L12.42 18.622L18.538 39H13.248L8.97 24.648L6.946 28.742V39H1.886V6.8ZM49.4744 6.8H62.8604V11.4H54.5344V20.37H61.0664V24.97H54.5344V39H49.4744V6.8ZM66.8969 6.8H80.6969V11.4H71.9569V19.91H78.9029V24.51H71.9569V34.4H80.6969V39H66.8969V6.8ZM85.2179 6.8H99.0179V11.4H90.2779V19.91H97.2239V24.51H90.2779V34.4H99.0179V39H85.2179V6.8Z" fill="#393330"/>
<g clip-path="url(#clip0_2_20)">
<path d="M27.6998 37.7738C34.9989 40.3806 40.5246 34.1242 43.1315 26.8251C45.7387 19.5276 45.4251 11.1863 38.1276 8.57906C30.8285 5.97222 25.3023 12.2272 22.6955 19.5262C20.0886 26.8253 20.4007 35.167 27.6998 37.7738Z" stroke="#EE8542" stroke-width="3"/>
<path d="M37.0862 11.4989C35.1049 12.438 30.0993 17.2337 31.4555 22.656C32.8098 28.0772 29.9944 33.6558 28.7433 34.8542C31.4556 34.1774 35.7302 29.1194 34.374 23.6971C33.0197 18.2759 35.8336 12.6977 37.0862 11.4989Z" fill="#EE8542"/>
</g>
<defs>
<clipPath id="clip0_2_20">
<rect width="37.2009" height="37.2009" fill="white" transform="translate(10.0547 10.1621) rotate(-15.3455)"/>
</clipPath>
</defs>
</svg>
