<svg width="60" height="60" viewBox="0 0 60 60" fill="none" xmlns="http://www.w3.org/2000/svg">
<path d="M50.5387 16.0374L50.2087 14.3724C49.9112 12.8774 49.2387 11.4649 47.7062 10.9249C47.2137 10.7524 46.6562 10.6799 46.2812 10.3224C45.9012 9.9649 45.7912 9.4074 45.7037 8.8924C45.5412 7.9474 45.3912 7.0024 45.2237 6.0599C45.0812 5.2474 44.9687 4.3349 44.5987 3.5924C44.1112 2.5924 43.1062 2.0074 42.1087 1.6224C41.5967 1.43097 41.0742 1.26904 40.5437 1.1374C38.0437 0.479902 35.4187 0.237402 32.8512 0.0974022C29.7681 -0.0721132 26.6768 -0.0203137 23.6012 0.252402C21.3137 0.459902 18.9012 0.712402 16.7262 1.5024C15.9312 1.7924 15.1112 2.1424 14.5062 2.7549C13.7637 3.5099 13.5237 4.6799 14.0637 5.6199C14.4487 6.2874 15.1012 6.7599 15.7937 7.0699C16.6937 7.4749 17.6362 7.7799 18.6012 7.9849C21.2887 8.5799 24.0737 8.8124 26.8187 8.9099C29.8637 9.0349 32.9112 8.9349 35.9437 8.6149C36.6912 8.5324 37.4387 8.4324 38.1837 8.3174C39.0637 8.1824 39.6287 7.0349 39.3687 6.2324C39.0587 5.2749 38.2262 4.9049 37.2837 5.0499C36.1187 5.2349 34.8837 5.3199 33.8287 5.4149C30.8862 5.6149 27.9337 5.6199 24.9887 5.4299C24.0223 5.36596 23.0578 5.27676 22.0962 5.1624C21.8812 5.1374 21.6462 5.0999 21.4512 5.0724C20.8437 4.9824 20.2412 4.8724 19.6412 4.7474C19.3637 4.6799 19.3637 4.2849 19.6412 4.2174H19.6537C20.3462 4.0674 21.0462 3.9474 21.7487 3.8499H21.7537C22.0812 3.8274 22.4112 3.7699 22.7387 3.7299C25.5835 3.43464 28.4452 3.33441 31.3037 3.4299C32.9887 3.4774 34.6712 3.5974 36.3462 3.7899L36.9162 3.8674C37.5837 3.9674 38.2487 4.0874 38.9112 4.2299C39.8912 4.4424 41.1487 4.5124 41.5862 5.5849C41.7237 5.9274 41.7862 6.3049 41.8637 6.6624L42.6612 10.3724C42.6781 10.452 42.6784 10.5341 42.6622 10.6138C42.646 10.6935 42.6135 10.769 42.5669 10.8356C42.5202 10.9022 42.4603 10.9585 42.3909 11.001C42.3216 11.0434 42.2442 11.0711 42.1637 11.0824H42.1562C42.0637 11.0974 41.9687 11.1074 41.8762 11.1199C37.9437 11.6216 33.983 11.868 30.0187 11.8574C26.0907 11.8534 22.1669 11.5995 18.2712 11.0974C17.9212 11.0549 17.5387 10.9924 17.2287 10.9474C16.4137 10.8274 15.6062 10.6774 14.7962 10.5449C13.8137 10.3824 12.8762 10.4649 11.9887 10.9474C11.2637 11.3474 10.6712 11.9574 10.3012 12.6999C9.91617 13.4899 9.80367 14.3499 9.63367 15.1999C9.46117 16.0499 9.19367 16.9674 9.29617 17.8399C9.51367 19.7224 10.8287 21.2524 12.7212 21.5949C22.0798 23.2651 31.6299 23.5816 41.0787 22.5349C41.2582 22.5145 41.44 22.5346 41.6107 22.5938C41.7814 22.653 41.9366 22.7497 42.065 22.8768C42.1933 23.004 42.2915 23.1583 42.3523 23.3285C42.4131 23.4986 42.4349 23.6802 42.4162 23.8599L42.2387 25.6024L39.6937 50.3699C39.5912 51.3949 39.5762 52.4499 39.3812 53.4624C39.0762 55.0549 37.9987 56.0324 36.4262 56.3899C34.9837 56.7174 33.5137 56.8899 32.0362 56.9024C30.3962 56.9124 28.7612 56.8399 27.1212 56.8474C25.3737 56.8574 23.2312 56.6974 21.8837 55.3974C20.6962 54.2524 20.5337 52.4624 20.3712 50.9149L18.5437 33.3824L17.7387 25.6474C17.6462 24.7699 17.0237 23.9099 16.0437 23.9524C15.2037 23.9899 14.2487 24.7024 14.3487 25.6499L14.9187 31.1124L17.2912 53.8924C17.6587 57.2524 20.2262 59.0624 23.4062 59.5724C25.2612 59.8724 27.1637 59.9324 29.0487 59.9624C31.4637 60.0024 33.9037 60.0949 36.2787 59.6574C39.7987 59.0124 42.4412 56.6624 42.8187 53.0149C43.6687 44.6849 44.5262 36.3574 45.3787 28.0274L45.9162 22.8099C45.9426 22.5512 46.0518 22.3079 46.2274 22.116C46.403 21.9242 46.6358 21.7941 46.8912 21.7449C47.8962 21.5499 48.8587 21.2149 49.5762 20.4499C50.7137 19.2299 50.9412 17.6424 50.5387 16.0374ZM46.8437 17.9674C46.4812 18.3099 45.9362 18.4699 45.3987 18.5499C39.3587 19.4474 33.2337 19.8999 27.1287 19.6999C22.7587 19.5499 18.4362 19.0649 14.1112 18.4549C13.6862 18.3949 13.2287 18.3174 12.9362 18.0049C12.3862 17.4149 12.6587 16.2299 12.8012 15.5174C12.9312 14.8674 13.1812 13.9949 13.9587 13.9024C15.1687 13.7599 16.5737 14.2724 17.7737 14.4524C19.2162 14.6724 20.6637 14.8499 22.1162 14.9824C28.3162 15.5474 34.6212 15.4574 40.7962 14.6324C41.9212 14.4824 43.0437 14.3074 44.1587 14.1074C45.1562 13.9274 46.2587 13.5924 46.8587 14.6224C47.2737 15.3249 47.3287 16.2649 47.2637 17.0574C47.244 17.4035 47.0928 17.729 46.8412 17.9674H46.8437ZM31.4462 27.7174C29.2912 28.6424 26.8462 29.6874 23.6737 29.6874C22.3477 29.6842 21.0282 29.5017 19.7512 29.1449L21.9437 51.6549C22.1062 53.6049 23.7362 55.1049 25.6937 55.1049C25.6937 55.1049 28.8012 55.2674 29.8387 55.2674C30.9562 55.2674 34.3037 55.1049 34.3037 55.1049C36.2612 55.1049 37.8887 53.6049 38.0512 51.6549L40.4012 26.7799C39.341 26.3965 38.2235 26.1953 37.0962 26.1849C35.0312 26.1849 33.3687 26.8949 31.4462 27.7174Z" fill="#DDDAD5"/>
</svg>
